<?xml version="1.0" encoding="utf-8"?>
<!-- Generator: Adobe Illustrator 24.2.3, SVG Export Plug-In . SVG Version: 6.00 Build 0)  -->
<svg version="1.1" id="Layer_2" xmlns="http://www.w3.org/2000/svg" xmlns:xlink="http://www.w3.org/1999/xlink" x="0px" y="0px"
	 viewBox="0 0 200 150" style="enable-background:new 0 0 200 150;" xml:space="preserve">
<style type="text/css">
	.st0{fill:#4F2C87;}
	.st1{fill:#FFFFFF;}
	.st2{font-family:'BahnschriftCorrect-Regular';}
	.st3{font-size:26.427px;}
	.st4{font-family:'Montserrat-Regular';}
	.st5{font-size:5px;}
</style>
<rect x="-0.41" class="st0" width="200.47" height="149.88"/>
<polygon class="st1" points="38.26,61.79 40.62,64.29 42.5,60.5 58.5,89.5 62.5,89.5 42.5,54.5 "/>
<polygon class="st1" points="49.12,61.35 51,64 54,60 69,89 73,89 54,54 "/>
<g>
	<path class="st1" d="M17,63h7.39c0.4,0,0.8,0.11,1.14,0.32l3.09,1.85c0.86,0.52,1.41,1.44,1.44,2.45l0.12,3.44l7.41,10.71
		c0,0,0.94,1.65,2.35,0.71c1.41-0.94,4.12-2,4.12-2L47.24,86l-20.94-0.24l5.65-8.94l-2.59-4l-8.71,16h33.06L42.24,70.43
		c-0.27-0.43-0.37-0.95-0.29-1.45l0.05-0.32c0.11-0.64-0.1-1.29-0.56-1.75l-3.05-3.05c-0.81-0.81-1.94-1.25-3.09-1.19l-5.6,0.27
		l-3.42-1.66c-0.3-0.15-0.64-0.22-0.97-0.22L17,61.18V63z"/>
	<path class="st0" d="M36.55,74.03l1.81,1.91c0.12,0.15,0.37,0.58,0.36,0.77l-0.14,2.58l0.77-0.28c0.31-0.11,0.39-0.37,0.38-0.7
		l0.01-2.24c-0.01-0.18-0.19-0.5-0.31-0.63l-2.48-3.15c-0.22-0.25-0.26-0.61-0.09-0.9l0.19-0.29c0.29-0.5,0.9-0.35,1.2,0.15
		l3.81,6.18c0.2,0.32,0.13,0.74-0.16,0.99l-2.35,2c-0.36,0.3-0.9,0.22-1.15-0.18l-3.28-5.26c-0.27-0.43-0.05-1,0.44-1.14l0.19-0.05
		C36.05,73.7,36.36,73.8,36.55,74.03z"/>
</g>
<text transform="matrix(0.6336 0 0 1 79.4702 78.8301)" class="st1 st2 st3">AЗС МЕДИА</text>
<text transform="matrix(1 0 0 1 80.9411 88.2939)" class="st1 st4 st5">ЭФФЕКТИВНАЯ РЕКЛАМА НА АЗС</text>
</svg>
